<?xml version="1.0" encoding="UTF-8" standalone="no"?>
<!DOCTYPE svg PUBLIC "-//W3C//DTD SVG 1.1//EN" "http://www.w3.org/Graphics/SVG/1.1/DTD/svg11.dtd">
<svg width="100%" height="100%" viewBox="0 0 448 512" version="1.1" xmlns="http://www.w3.org/2000/svg" xmlns:xlink="http://www.w3.org/1999/xlink" xml:space="preserve" xmlns:serif="http://www.serif.com/" style="fill-rule:evenodd;clip-rule:evenodd;stroke-linejoin:round;stroke-miterlimit:2;">
    <path d="M447.8,153.6C445.8,197.2 415.4,256.9 356.4,332.7C295.5,411.9 244,451.5 201.8,451.5C175.7,451.5 153.6,427.4 135.5,379.2C100.3,250 85.3,174.3 56.2,174.3C52.8,174.3 41.1,181.4 21,195.4L0,168.2C51.6,122.9 100.9,72.5 131.8,69.7C166.7,66.3 188.1,90.2 196.2,141.2C224.9,322.7 237.6,350.1 289.8,267.9C308.5,238.3 318.6,215.8 320,200.3C324.8,154.4 284.2,157.5 256.7,169.3C278.7,97.2 320.8,62.2 382.9,64.2C428.7,65.4 450.4,95.3 447.8,153.6Z" style="fill:white;fill-rule:nonzero;"/>
</svg>
